<mxfile host="app.diagrams.net" modified="2023-04-04T18:42:37.480Z" agent="Mozilla/5.0 (Windows NT 10.0; Win64; x64) AppleWebKit/537.36 (KHTML, like Gecko) Chrome/111.0.0.0 Safari/537.36" etag="PFH53p0RHVYhCekNvSik" version="21.1.4" type="google">
  <diagram name="Página-1" id="6VUE4HSDjzkoRX2RgSwe">
    <mxGraphModel dx="1434" dy="796" grid="1" gridSize="13" guides="1" tooltips="1" connect="1" arrows="1" fold="1" page="1" pageScale="1" pageWidth="827" pageHeight="1169" math="0" shadow="0">
      <root>
        <mxCell id="0" />
        <mxCell id="1" parent="0" />
        <mxCell id="d_lP_OPQO0890p_T6ZSq-7" style="edgeStyle=orthogonalEdgeStyle;rounded=0;orthogonalLoop=1;jettySize=auto;html=1;" parent="1" source="d_lP_OPQO0890p_T6ZSq-2" target="d_lP_OPQO0890p_T6ZSq-5" edge="1">
          <mxGeometry relative="1" as="geometry" />
        </mxCell>
        <mxCell id="d_lP_OPQO0890p_T6ZSq-2" value="&lt;font style=&quot;font-size: 20px;&quot;&gt;Inicio&lt;/font&gt;" style="strokeWidth=2;html=1;shape=mxgraph.flowchart.start_1;whiteSpace=wrap;" parent="1" vertex="1">
          <mxGeometry x="140" y="60" width="99" height="60" as="geometry" />
        </mxCell>
        <mxCell id="d_lP_OPQO0890p_T6ZSq-10" style="edgeStyle=orthogonalEdgeStyle;rounded=0;orthogonalLoop=1;jettySize=auto;html=1;entryX=0.5;entryY=0;entryDx=0;entryDy=0;" parent="1" source="d_lP_OPQO0890p_T6ZSq-3" target="d_lP_OPQO0890p_T6ZSq-9" edge="1">
          <mxGeometry relative="1" as="geometry" />
        </mxCell>
        <mxCell id="d_lP_OPQO0890p_T6ZSq-3" value="num1, num2" style="html=1;strokeWidth=2;shape=manualInput;whiteSpace=wrap;rounded=1;size=26;arcSize=11;" parent="1" vertex="1">
          <mxGeometry x="120" y="350" width="139" height="70" as="geometry" />
        </mxCell>
        <mxCell id="d_lP_OPQO0890p_T6ZSq-8" style="edgeStyle=orthogonalEdgeStyle;rounded=0;orthogonalLoop=1;jettySize=auto;html=1;" parent="1" source="d_lP_OPQO0890p_T6ZSq-5" target="d_lP_OPQO0890p_T6ZSq-3" edge="1">
          <mxGeometry relative="1" as="geometry" />
        </mxCell>
        <mxCell id="d_lP_OPQO0890p_T6ZSq-5" value="&lt;font style=&quot;font-size: 16px;&quot;&gt;Informe dois Valores&lt;/font&gt;" style="strokeWidth=2;html=1;shape=mxgraph.flowchart.display;whiteSpace=wrap;" parent="1" vertex="1">
          <mxGeometry x="100" y="190" width="179" height="100" as="geometry" />
        </mxCell>
        <mxCell id="d_lP_OPQO0890p_T6ZSq-12" style="edgeStyle=orthogonalEdgeStyle;rounded=0;orthogonalLoop=1;jettySize=auto;html=1;entryX=0.5;entryY=0;entryDx=0;entryDy=0;entryPerimeter=0;" parent="1" source="d_lP_OPQO0890p_T6ZSq-9" target="d_lP_OPQO0890p_T6ZSq-11" edge="1">
          <mxGeometry relative="1" as="geometry" />
        </mxCell>
        <mxCell id="d_lP_OPQO0890p_T6ZSq-9" value="soma &amp;lt;-&amp;nbsp; num1+num2" style="rounded=1;whiteSpace=wrap;html=1;absoluteArcSize=1;arcSize=14;strokeWidth=2;" parent="1" vertex="1">
          <mxGeometry x="65" y="507" width="250" height="52" as="geometry" />
        </mxCell>
        <mxCell id="d_lP_OPQO0890p_T6ZSq-14" style="edgeStyle=orthogonalEdgeStyle;rounded=0;orthogonalLoop=1;jettySize=auto;html=1;entryX=0.5;entryY=0;entryDx=0;entryDy=0;entryPerimeter=0;" parent="1" source="d_lP_OPQO0890p_T6ZSq-11" target="d_lP_OPQO0890p_T6ZSq-13" edge="1">
          <mxGeometry relative="1" as="geometry" />
        </mxCell>
        <mxCell id="d_lP_OPQO0890p_T6ZSq-11" value="&lt;span style=&quot;font-size: 16px;&quot;&gt;&quot;O resultado da soma é : &quot;, soma&lt;/span&gt;" style="strokeWidth=2;html=1;shape=mxgraph.flowchart.display;whiteSpace=wrap;" parent="1" vertex="1">
          <mxGeometry x="27.5" y="624" width="325" height="100" as="geometry" />
        </mxCell>
        <mxCell id="d_lP_OPQO0890p_T6ZSq-13" value="Fim" style="strokeWidth=2;html=1;shape=mxgraph.flowchart.terminator;whiteSpace=wrap;" parent="1" vertex="1">
          <mxGeometry x="140" y="806" width="99" height="60" as="geometry" />
        </mxCell>
      </root>
    </mxGraphModel>
  </diagram>
</mxfile>
